<?xml version="1.0" encoding="UTF-8"?>
<svg width="183px" height="28px" viewBox="0 0 183 28" version="1.1" xmlns="http://www.w3.org/2000/svg" xmlns:xlink="http://www.w3.org/1999/xlink">
    <!-- Generator: Sketch 51.3 (57544) - http://www.bohemiancoding.com/sketch -->
    <title>w-a</title>
    <desc>Created with Sketch.</desc>
    <defs></defs>
    <g id="web" stroke="none" stroke-width="1" fill="none" fill-rule="evenodd">
        <g id="w-a" fill="#FFFFFF">
            <g id="Group-11" transform="translate(34.000000, 4.000000)">
                <path d="M144.119615,15.5193626 C143.290691,15.7464004 142.415989,15.9509028 141.67815,15.9509028 C140.987959,15.9509028 140.274525,15.6325446 140.274525,14.9056196 C140.274693,13.9965254 141.104156,13.6330629 142.231462,13.6107634 L144.119615,13.5649853 L144.119615,15.5193626 Z M147.872694,15.3827189 L147.872694,9.86187826 C147.872694,7.0674107 146.307548,5.97703999 142.415989,5.97703999 C140.413257,5.97703999 138.75541,6.43182289 137.32807,6.97747141 L138.088209,9.72568929 C139.262944,9.45287345 140.598475,9.18098395 141.840361,9.18098395 C143.406416,9.18098395 144.119615,9.49841574 144.119615,10.5897128 L144.119615,11.3614727 L141.933079,11.3614727 C139.44582,11.3614727 136.54516,11.9979869 136.54516,15.1322026 C136.545329,17.6090026 138.110289,18.8810877 140.87316,18.8810877 C142.254469,18.8810877 143.566993,18.1769507 144.488416,17.4723589 C144.83352,18.5404132 146.445354,18.7902221 147.964486,18.7902221 C148.263795,18.7902221 148.562885,18.7902221 148.862194,18.7676867 L149,15.9051247 C148.286566,15.8821177 147.872694,15.7912521 147.872694,15.3827189 Z M132.229018,15.7687168 C131.193486,15.7687168 130.848399,15.7010939 130.848399,14.7919828 L130.848399,9.06687559 L134.738341,9.06687559 L134.738341,6.27286277 L130.848399,6.27286277 L130.848399,3.72798516 L127.027226,3.72798516 L127.027226,6.27286277 L125.184397,6.27286277 L125.184397,9.06687559 L127.027226,9.06687559 L127.027226,14.8147708 C127.027226,19.0402836 129.857955,18.926411 132.275722,18.926411 C133.195511,18.926411 134.416951,18.7446798 135.314659,18.4948709 L134.945858,15.5193626 C134.945858,15.5193626 133.081639,15.7687168 132.229018,15.7687168 Z M119.011008,7.93119839 L119.011008,6.27286277 L115.166137,6.27286277 L115.166137,18.6768211 L119.011008,18.6768211 L119.011008,10.271102 C119.516908,9.72568929 120.667929,9.2035193 121.795252,9.2035193 C122.48706,9.2035193 122.740372,9.2035193 123.477504,9.33947247 L123.983185,6.22755628 C123.453571,6.06790562 122.94789,6.02258229 122.255845,6.02258229 C120.806442,6.02258229 119.632414,7.13595993 119.011008,7.93119839 Z M106.831072,15.9276769 C104.782343,15.9276769 104.138856,14.6330396 104.138856,12.4971499 C104.138856,10.4756044 104.713558,8.95369356 106.786911,8.95369356 C108.904442,8.95369356 109.411976,10.4756044 109.411976,12.4750862 C109.411976,14.5877162 108.904442,15.9276769 106.831072,15.9276769 Z M106.855006,5.95495939 C102.872346,5.95495939 100.270978,8.47684691 100.270978,12.5882513 C100.270978,16.4733254 102.503999,18.949418 106.649105,18.949418 C110.515349,18.949418 113.324925,16.7005989 113.324925,12.4750862 C113.324925,8.43128778 111.321283,5.95495939 106.855006,5.95495939 Z M92.1892258,4.72794498 C94.5830593,4.72794498 96.0333893,3.25088587 96.7695945,2.18283156 L94.9044491,0.52498438 C94.1224657,1.320206 93.2484378,1.93371321 92.2810178,1.93371321 C91.2908098,1.93371321 90.369151,1.29719906 89.5404632,0.52498438 L87.5614452,2.2060743 C88.252563,3.296445 89.6789596,4.72794498 92.1892258,4.72794498 Z M92.2352397,12.4518434 C90.8996918,12.4518434 90.2322715,11.6563692 90.2322715,10.6573357 C90.2322715,9.47588039 90.8996918,8.63533543 92.2810178,8.63533543 C93.5017499,8.63533543 94.1912508,9.56696498 94.1912508,10.56647 C94.1912508,11.543204 93.4329649,12.4518434 92.2352397,12.4518434 Z M93.7543547,18.5636559 C94.7675696,18.5636559 95.6192643,18.8353096 95.6192643,19.6993331 C95.6192643,20.5166353 94.375761,21.1754659 92.8106322,21.1754659 C90.6931009,21.1754659 89.6559527,20.5854204 89.6559527,19.766956 C89.6559527,19.448581 89.7036003,19.0402836 89.9092649,18.5636559 L93.7543547,18.5636559 Z M92.1662189,6.29517917 C88.9427544,6.29517917 86.8480111,8.24955652 86.8480111,10.7024232 C86.8480111,12.0888525 87.5614452,13.3609376 88.41314,13.8833434 C87.9999582,14.2923482 87.1703272,15.5869855 87.1466297,16.6092617 C87.1466297,17.1549102 87.3776255,17.9271418 88.0443384,18.3129038 C87.1703272,18.8130101 86.36372,19.7448754 86.36372,20.6307437 C86.36372,22.9025697 88.0213314,23.8107375 92.1415782,23.8107375 C96.4031172,23.8107375 98.4518466,21.7436498 98.4518466,19.1992269 C98.4518466,16.5864906 96.6554862,15.5414432 93.200807,15.5414432 L90.0010568,15.5414432 L90.0240638,14.405766 C90.7618859,14.5189312 91.5210982,14.587952 92.2580108,14.587952 C95.0675862,14.587952 97.5992255,13.1559805 97.5992255,10.6117934 C97.5992255,10.3389607 97.5064904,9.52165848 97.4614197,9.2711422 L99.3716358,9.2711422 L99.3716358,6.61331835 L95.3422715,6.90845058 C94.883059,6.68164863 93.7771258,6.29517917 92.1662189,6.29517917 Z M80.4780189,18.6768211 L84.2991755,18.6768211 L84.2991755,6.27286277 L80.4780189,6.27286277 L80.4780189,18.6768211 Z M70.3505351,6.79550435 C70.3505351,6.11344791 70.8564521,5.5001765 72.4919997,5.5001765 C74.1484658,5.5001765 75.1388927,5.81855147 76.336399,6.15900705 L77.4637054,3.47839521 C76.1981215,2.93274669 74.9546182,2.38780556 72.3760386,2.38780556 C69.4976783,2.38780556 66.5291428,3.72822095 66.5291428,6.81758495 C66.5291428,12.2701122 74.2646458,11.5655035 74.2646458,14.1782567 C74.2646458,15.1554454 73.3662466,15.7464004 71.4095281,15.7464004 C69.6138751,15.7464004 68.5546463,15.5193626 67.1040805,15.0190374 L66,17.7904981 C67.2193342,18.4495476 68.7844799,18.926411 71.4543799,18.926411 C74.8170313,18.926411 78.2243155,17.5632245 78.2243155,14.0423035 C78.2243155,8.93046767 70.3505351,8.93046767 70.3505351,6.79550435 Z" id="path370"></path>
                <path d="M33.1796938,6.45051079 C33.1796938,5.76293202 33.6905774,5.14316379 35.3421816,5.14316379 C37.0151306,5.14316379 38.0143623,5.46372887 39.2238458,5.80774787 L40.3631717,3.1017724 C39.0839898,2.55076714 37.8289761,2 35.2253032,2 C32.3186854,2 29.3200889,3.35381262 29.3200889,6.47398171 C29.3200889,11.9795612 37.1320089,11.2685115 37.1320089,13.9062002 C37.1320089,14.892761 36.2245349,15.4902149 34.2483859,15.4902149 C32.4355638,15.4902149 31.3659363,15.2597747 29.9004158,14.7557113 L28.7862106,17.5536655 C29.8955005,18.1532454 31.2945881,18.599601 33.5298187,18.6833649 C33.6391795,19.0893437 33.7600377,19.5213786 33.7600377,19.9191426 C33.7600377,20.7221881 32.5761171,21.1797859 31.9941405,21.5249785 L33.3179171,23.8188863 C34.784135,23.2211773 36.9928502,22.2130335 36.9928502,20.3546812 C36.9928502,19.7121564 36.7354015,19.0694105 36.4803169,18.4970433 L36.4563867,18.4970433 C39.0095972,18.0030655 41.1312489,16.5596212 41.1312489,13.7693886 C41.1312489,8.60760699 33.1796938,8.6078281 33.1796938,6.45074891 L33.1796938,6.45051079 Z M18.2047225,10.8360174 L19.8469382,4.62666758 L21.4886947,10.8360174 L18.2047225,10.8360174 Z M17.1627839,2.23021907 L11.6572044,18.3684465 L15.7294253,18.3684465 L17.2784887,13.6438362 L22.4149285,13.6438362 L23.9639919,18.3684465 L28.0362128,18.3684465 L22.5308544,2.23021907 L17.1627839,2.23021907 Z M48.1673361,10.8360174 L49.80979,4.62666758 L51.4531793,10.8360174 L48.1673361,10.8360174 Z M52.4937062,2.23021907 L47.1268092,2.23021907 L41.6214679,18.3684465 L45.6927533,18.3684465 L47.242514,13.6438362 L52.3787157,13.6438362 L53.9284765,18.3684465 L58,18.3684465 L52.4937062,2.23021907 Z M5.29696045,10.8132608 L3.95581873,10.8132608 L3.95581873,5.26613098 L5.85242178,5.26613098 C7.95857929,5.26613098 8.62785755,6.43103674 8.62785755,8.05119322 C8.62785755,9.55731167 7.75065759,10.8132608 5.29696045,10.8132608 Z M6.36189372,2.23021907 L0,2.23021907 L0,18.3684465 L3.95581873,18.3684465 L3.95581873,13.8041187 L5.15943449,13.8041187 C10.039395,13.8041187 12.6775429,11.1324142 12.6775429,7.95991177 C12.6775429,4.35374165 10.039395,2.23045718 6.36189372,2.23021907 Z" id="path372"></path>
            </g>
            <g id="Group-9">
                <polygon id="path419" points="18.9348605 4.13090539 23.8412884 4.13174371 23.8421259 12.1067641 15.8748819 12.1058419 15.8748819 10.3084012 20.2759854 5.90421916 20.4909928 5.68866108"></polygon>
                <polygon id="path421" points="13.9956018 0.0492598802 19.6296649 5.68874491 13.9960625 11.3257904 12.7269054 10.0556383 12.7260679 3.52208144 10.5274843 3.52208144"></polygon>
                <polygon id="path423" points="4.15084491 4.13090539 4.15084491 9.0423988 5.49078893 7.7017521 5.70613977 7.48618563 10.3203914 12.1063952 12.1184323 12.1063952 12.1175948 4.13137485"></polygon>
                <polygon id="path425" points="0.0718506143 13.9866455 5.70579639 8.34832575 11.3393904 13.9874587 10.0690692 15.258424 3.54155941 15.258424 3.54155941 17.4599281"></polygon>
                <polygon id="path427" points="4.15084491 23.8422683 4.15084491 15.8669042 12.1176199 15.8669042 12.1184574 17.6656275 7.7180491 22.0702707 7.5033934 22.2853677 7.71851811 22.5008168 9.05764136 23.8414635"></polygon>
                <polygon id="path429" points="13.9972266 27.9243832 8.36292909 22.2852503 13.9968749 16.646109 15.2652279 17.9167222 15.2652279 24.4519138 17.4670527 24.4519138"></polygon>
                <polygon id="path431" points="23.8421008 23.8422683 15.8740444 23.8414299 15.8740444 15.8673401 17.6717335 15.8665018 22.0720246 20.2711449 22.2866887 20.486594 22.5021568 20.2711449 23.8412884 18.9304982"></polygon>
                <polygon id="path433" points="22.2866887 19.6256695 16.6547111 13.9874587 17.9247978 12.7155713 24.4505739 12.7155713 24.4505739 10.5145281 27.9202827 13.9878108"></polygon>
            </g>
        </g>
    </g>
</svg>